
<svg class="App-logo" version="1.0" xmlns="http://www.w3.org/2000/svg"
 width="2131.000000pt" height="2131.000000pt" viewBox="0 0 2131.000000 2131.000000"
 preserveAspectRatio="xMidYMid meet">

<g transform="translate(0.000000,2131.000000) scale(0.100000,-0.100000)"
fill="#000000" stroke="none">
<path d="M10100 21239 c-1737 -93 -3409 -605 -4905 -1502 -82 -49 -260 -163
-395 -252 -1973 -1309 -3456 -3247 -4200 -5485 -129 -387 -236 -782 -314
-1157 l-34 -163 1163 0 1162 0 28 108 c37 146 124 428 180 592 656 1891 1995
3506 3735 4502 938 538 1948 881 3020 1027 602 82 1295 95 1930 35 622 -58
1254 -194 1870 -403 1732 -586 3239 -1746 4257 -3276 508 -763 900 -1632 1118
-2477 l28 -108 1162 0 1163 0 -34 160 c-208 995 -572 1982 -1062 2880 -966
1770 -2407 3221 -4182 4210 -242 135 -713 366 -965 473 -1170 496 -2369 772
-3635 837 -222 11 -873 11 -1090 -1z m107 -638 l33 -6 -44 -63 c-66 -95 -122
-207 -152 -307 -23 -79 -26 -108 -27 -235 0 -107 4 -159 16 -198 16 -53 77
-172 87 -172 6 1 159 247 433 694 l178 291 142 -4 c78 -1 145 -6 149 -10 12
-12 660 -1192 656 -1196 -2 -2 -64 -1 -139 2 l-136 6 -264 453 c-145 250 -266
454 -270 454 -4 0 -130 -200 -280 -445 l-274 -445 -176 0 -176 0 -42 60 c-55
78 -113 202 -147 315 -36 119 -38 287 -5 410 25 94 83 219 142 307 73 110 67
106 172 101 51 -3 107 -8 124 -12z m-843 -18 c11 -40 46 -195 46 -208 0 -8
-30 -20 -78 -31 l-79 -19 117 -473 c113 -457 116 -473 96 -477 -12 -3 -70 -16
-129 -29 l-109 -23 -7 21 c-5 11 -57 220 -117 464 -100 409 -110 442 -129 442
-19 0 -28 -25 -95 -267 -41 -148 -104 -382 -140 -522 -65 -255 -65 -255 -95
-262 -16 -5 -80 -19 -142 -32 l-112 -24 -443 519 c-244 286 -442 523 -441 526
2 6 232 61 259 62 6 0 161 -173 344 -385 183 -212 337 -382 341 -378 11 11 63
199 169 609 50 192 93 351 98 355 8 8 586 146 619 148 13 1 24 -6 27 -16z
m-2119 -530 c-15 -63 -428 -1439 -435 -1453 -8 -15 -287 -136 -295 -128 -3 2
31 132 75 288 44 156 78 285 77 286 -1 0 -98 -39 -215 -88 -118 -49 -216 -87
-219 -84 -6 6 55 268 66 284 3 5 107 51 231 102 124 51 228 98 233 104 16 23
87 260 80 267 -5 4 -208 -76 -451 -178 -244 -101 -446 -182 -448 -180 -3 2 12
70 33 150 l38 146 610 255 c335 140 614 255 619 255 4 1 5 -11 1 -26z m5861
-177 c154 -24 417 -47 549 -47 205 -1 409 39 598 117 l108 45 122 -38 c68 -21
124 -42 126 -46 1 -4 -223 -228 -497 -496 l-499 -489 -574 174 c-316 96 -579
176 -586 179 -13 4 66 245 81 245 4 0 231 -68 503 -151 l494 -150 137 129 c75
72 147 141 160 155 l23 24 -62 7 c-34 3 -104 6 -155 6 -133 0 -334 18 -444 40
-98 20 -559 156 -573 169 -4 4 11 59 34 123 l41 115 157 -48 c86 -26 202 -54
257 -63z m1885 -167 c114 -59 119 -63 118 -93 0 -17 -12 -241 -27 -498 -15
-258 -24 -468 -21 -468 11 0 192 112 542 336 l348 222 287 -140 c158 -77 290
-143 294 -147 3 -3 -13 -38 -35 -76 -23 -39 -52 -87 -64 -108 l-22 -37 -73 40
-74 39 -248 -420 c-137 -231 -253 -422 -258 -425 -4 -3 -58 21 -118 53 -78 41
-109 62 -107 73 3 8 113 197 246 420 208 350 239 407 225 417 -13 9 -55 -14
-237 -126 -325 -201 -375 -233 -559 -352 -91 -60 -172 -109 -178 -109 -7 0
-66 28 -131 61 l-119 62 0 43 c0 23 18 323 40 665 22 343 40 624 40 626 0 8
20 -1 131 -58z m-9520 -1168 c-45 -570 -62 -756 -73 -762 -7 -5 -68 -45 -135
-89 l-123 -80 0 35 c0 19 18 292 40 606 22 315 39 574 37 576 -2 2 -185 -114
-407 -257 -222 -143 -406 -260 -409 -260 -9 0 0 282 9 301 5 9 258 179 562
378 539 353 553 361 556 334 1 -15 -24 -367 -57 -782z m11962 -395 c279 -220
507 -402 507 -405 0 -11 -1618 -284 -1632 -275 -7 4 -64 48 -127 98 -103 82
-112 91 -90 96 13 4 153 31 312 60 158 30 287 56 286 59 0 4 -81 69 -180 146
-115 89 -175 142 -167 146 7 4 78 21 157 38 116 25 147 28 160 18 10 -7 97
-75 195 -152 140 -110 184 -139 205 -137 43 4 234 32 259 38 20 4 22 7 11 20
-7 9 -177 144 -377 301 -200 157 -361 287 -359 289 8 9 283 63 307 60 16 -1
218 -153 533 -400z m-13592 -175 c237 -74 807 -279 881 -317 18 -9 31 -27 37
-52 5 -20 21 -82 35 -137 l25 -100 -87 -87 c-48 -48 -271 -265 -497 -483
l-410 -397 -66 6 c-120 11 -232 34 -250 53 -18 19 -212 440 -351 763 l-79 185
308 302 c169 166 313 302 318 303 6 0 67 -18 136 -39z m14424 -701 c60 -9 60
-10 167 -122 59 -62 107 -117 107 -123 0 -5 -221 -189 -491 -408 l-492 -397
-39 37 c-21 21 -61 63 -88 94 l-48 56 368 299 368 299 -41 7 c-22 3 -72 7
-111 7 -38 1 -100 4 -137 8 l-68 6 0 123 0 124 223 0 c122 0 249 -4 282 -10z"/>
<path d="M3584 17532 l-191 -187 153 -335 c84 -184 154 -339 157 -345 3 -9
817 772 817 784 0 8 -713 271 -731 270 -8 0 -100 -84 -205 -187z"/>
<path d="M10411 13072 c-156 -2765 -286 -5029 -288 -5031 -5 -6 58 -108 -863
1399 -468 767 -856 1400 -861 1405 -6 6 4 -21 20 -60 109 -248 1378 -3235
1375 -3235 -2 0 -565 -65 -1250 -145 -686 -80 -1248 -144 -1250 -143 -15 16
-84 386 -110 588 -21 171 -30 666 -15 857 65 816 328 1589 814 2398 33 55 67
107 74 116 13 15 -2 38 -124 201 -465 621 -740 1054 -1002 1578 -279 560 -435
1054 -492 1560 -16 140 -16 488 0 625 84 724 415 1360 1026 1968 129 128 342
318 441 394 46 35 60 56 22 31 -13 -8 -45 -28 -73 -43 -570 -325 -1062 -693
-1515 -1132 -807 -783 -1367 -1750 -1623 -2803 -350 -1435 -120 -3017 624
-4307 153 -265 376 -584 558 -799 14 -17 -39 35 -118 115 -151 153 -395 426
-488 546 -326 420 -538 752 -720 1125 -508 1040 -611 2152 -307 3299 53 199
116 397 182 571 33 85 63 164 67 175 10 27 -109 -159 -180 -281 -305 -525
-510 -966 -669 -1447 -416 -1253 -408 -2471 26 -3707 254 -725 634 -1407 1216
-2185 150 -201 145 -198 -113 65 -586 598 -1022 1292 -1308 2086 -36 98 -80
230 -98 293 -32 110 -34 113 -37 70 -2 -24 1 -109 8 -189 132 -1719 952 -3150
2430 -4242 934 -690 2142 -1211 3375 -1457 803 -160 1491 -190 2300 -100 1372
152 2731 648 3830 1397 213 145 436 317 692 531 138 117 545 531 679 691 702
842 1110 1748 1234 2745 21 173 40 445 39 565 l0 75 -53 -210 c-192 -762 -455
-1330 -844 -1820 -111 -141 -367 -399 -502 -506 -116 -93 -253 -190 -258 -184
-2 2 38 57 90 122 415 520 794 1120 1036 1639 290 622 457 1193 533 1820 27
225 37 751 20 985 -70 925 -373 1852 -914 2799 -102 179 -189 321 -193 317 -2
-2 12 -50 31 -108 152 -447 259 -928 310 -1389 22 -196 31 -683 16 -880 -47
-612 -194 -1154 -461 -1695 -257 -523 -599 -985 -1081 -1465 -197 -198 -317
-307 -294 -271 4 8 56 80 115 160 806 1104 1267 2318 1340 3526 61 1027 -180
2048 -697 2944 -241 418 -569 845 -923 1202 -416 418 -884 784 -1423 1112
-274 167 -271 167 -91 -6 719 -695 1096 -1386 1189 -2182 17 -150 20 -492 5
-646 -92 -926 -547 -1904 -1439 -3092 l-141 -188 80 -144 c713 -1277 938
-2556 665 -3770 -14 -60 -33 -137 -43 -170 -16 -54 -21 -60 -43 -57 -101 12
-2580 390 -2584 394 -3 3 319 736 715 1628 396 893 719 1624 717 1626 -1 1
-384 -603 -851 -1342 -467 -740 -850 -1343 -853 -1341 -4 5 -7 76 -118 2942
-131 3383 -233 5929 -276 6855 -6 135 -14 248 -18 252 -3 4 -134 -2255 -290
-5020z m-1833 -6126 c661 -95 1205 -175 1208 -179 3 -3 -241 -425 -543 -937
l-548 -932 -106 110 c-412 428 -716 853 -954 1337 -122 247 -207 464 -300 763
-3 7 5 12 18 12 12 0 563 -79 1225 -174z m5386 22 c-150 -503 -459 -1074 -835
-1540 -172 -214 -518 -576 -619 -648 l-25 -18 -573 1031 c-314 566 -570 1032
-568 1035 4 3 2492 186 2608 191 l27 1 -15 -52z m-1516 -2239 c-10 -25 -377
-309 -583 -451 -194 -134 -679 -418 -691 -405 -5 5 -243 2312 -244 2362 0 13
252 -232 760 -740 418 -418 759 -763 758 -766z m-2273 253 c-29 -617 -54
-1125 -57 -1128 -3 -2 -54 24 -114 59 -421 248 -776 504 -1109 801 -150 134
-142 124 -119 145 43 42 1447 1252 1448 1249 2 -2 -21 -508 -49 -1126z"/>
<path d="M220 8797 c0 -37 110 -547 165 -762 180 -709 420 -1364 739 -2020
625 -1283 1487 -2409 2564 -3352 1575 -1377 3538 -2263 5602 -2528 761 -97
1568 -113 2325 -44 1295 116 2524 458 3683 1025 459 224 801 419 1222 699
2193 1455 3768 3674 4415 6220 55 215 165 725 165 762 0 10 -236 13 -1155 13
l-1154 0 -10 -37 c-5 -21 -32 -126 -60 -233 -427 -1658 -1394 -3181 -2722
-4286 -1263 -1052 -2775 -1701 -4389 -1883 -355 -41 -467 -46 -950 -46 -483 0
-595 5 -950 46 -1727 195 -3341 927 -4649 2107 -64 58 -204 193 -311 301
-1041 1047 -1788 2352 -2151 3761 -28 107 -55 212 -60 233 l-10 37 -1154 0
c-919 0 -1155 -3 -1155 -13z m2401 -1637 c186 -475 335 -867 331 -871 -4 -4
-53 -25 -109 -47 -79 -31 -106 -37 -117 -28 -13 10 -690 1725 -684 1732 9 9
216 82 227 81 9 -1 141 -327 352 -867z m16798 193 c231 -353 421 -647 421
-653 0 -18 -82 -274 -91 -284 -4 -4 -159 219 -345 498 -185 278 -340 506 -343
506 -4 0 -73 -198 -155 -440 -82 -242 -150 -439 -151 -438 -1 2 -43 60 -93
129 l-90 127 201 611 c154 469 204 608 213 599 6 -7 201 -302 433 -655z
m-17706 -511 c185 -472 337 -865 339 -872 2 -9 -37 -28 -111 -57 -63 -24 -115
-42 -116 -41 -1 2 -155 395 -342 873 l-340 870 101 42 c56 22 108 42 117 42
12 1 96 -204 352 -857z m255 676 c42 -109 423 -1082 428 -1089 4 -6 -66 -36
-188 -80 -21 -7 -40 -10 -43 -7 -3 3 -105 259 -226 569 -121 309 -223 567
-225 571 -3 4 7 13 23 20 77 31 180 67 195 67 11 1 23 -16 36 -51z m16612
-1360 l-21 -513 -261 -445 c-144 -245 -262 -446 -263 -448 -1 -1 -60 31 -131
71 -217 124 -244 139 -244 134 0 -3 185 -157 410 -343 226 -185 410 -341 410
-346 0 -6 -45 -62 -100 -126 l-99 -116 -458 -133 c-252 -73 -465 -133 -474
-133 -19 0 -103 229 -85 236 6 2 191 58 411 124 220 66 408 123 419 128 15 6
-47 61 -347 307 -201 165 -366 304 -366 309 -1 9 134 172 151 182 5 4 23 -6
39 -22 18 -17 33 -24 38 -18 5 5 33 51 61 101 l53 92 109 -55 c60 -31 110 -55
112 -53 6 7 353 594 364 615 6 11 18 140 26 287 8 147 17 271 19 275 26 51
242 410 245 407 2 -2 -6 -235 -18 -517z m974 -254 c-54 -93 -107 -180 -118
-193 -12 -12 -120 -90 -242 -171 l-221 -148 -196 -335 c-109 -184 -197 -337
-197 -340 0 -3 43 -29 95 -58 52 -29 95 -56 95 -60 0 -7 -98 -178 -110 -192
-5 -6 -396 206 -416 226 -2 2 115 205 260 452 l264 449 439 272 c241 150 439
271 441 269 1 -1 -41 -78 -94 -171z m-16197 -250 c116 -181 218 -341 227 -355
15 -25 13 -29 -65 -149 -95 -147 -227 -333 -397 -562 l-124 -168 -151 0 -152
1 -362 569 -362 570 41 97 c69 166 71 170 125 181 106 23 977 152 998 148 6
-2 105 -151 222 -332z m183 -1041 c0 -16 123 -858 126 -862 2 -3 629 527 705
596 l26 24 81 -93 c44 -51 78 -96 76 -100 -3 -4 -186 -161 -407 -350 -221
-188 -429 -366 -463 -395 l-61 -52 -99 111 c-54 61 -102 117 -107 124 -6 10
-111 766 -129 929 l-3 30 105 22 c114 23 150 27 150 16z m13425 -465 c77 -88
79 -91 59 -107 -11 -9 -39 -32 -61 -51 l-42 -36 324 -364 c178 -201 323 -368
322 -371 -3 -9 -180 -159 -188 -159 -3 0 -147 160 -320 355 -173 195 -320 355
-327 355 -7 0 -15 -6 -18 -14 -5 -13 146 -630 220 -901 20 -71 36 -135 36
-140 0 -6 -47 -50 -104 -98 l-104 -87 -613 261 c-338 143 -620 264 -627 268
-16 9 181 178 202 173 8 -1 218 -88 467 -192 249 -104 455 -187 458 -184 7 6
-24 132 -141 582 -54 211 -98 387 -96 392 4 12 458 410 466 409 4 0 43 -41 87
-91z m-11818 -529 c169 -144 314 -266 320 -273 16 -14 -51 -254 -168 -601
-107 -318 -137 -393 -158 -405 -10 -5 -75 -25 -144 -45 l-127 -35 -512 436
c-282 241 -515 439 -517 441 -7 5 19 252 29 279 10 26 116 80 600 306 253 119
341 157 357 158 6 0 150 -117 320 -261z m1360 -906 c453 -268 576 -336 646
-359 52 -17 89 -34 91 -44 2 -8 30 -226 61 -485 32 -259 59 -476 61 -483 5
-18 72 42 442 397 217 208 309 290 320 286 10 -3 142 -45 295 -94 153 -49 281
-92 283 -94 3 -3 -9 -44 -25 -92 -17 -48 -31 -90 -31 -93 0 -4 36 29 79 72
l80 79 603 -72 c332 -40 620 -75 641 -79 l37 -7 -511 -475 c-282 -261 -540
-501 -575 -533 l-63 -58 -133 16 c-73 9 -141 20 -152 24 -15 5 19 43 194 211
142 137 207 206 198 210 -7 4 -103 17 -213 30 -110 12 -204 26 -209 31 -5 4
38 55 95 114 l104 106 205 -25 c113 -14 221 -28 241 -31 33 -4 42 1 140 86 57
50 105 95 107 100 2 5 -2 11 -10 14 -7 3 -202 27 -433 55 -510 61 -490 57
-475 75 13 16 11 17 -58 40 -30 9 -58 13 -62 9 -5 -5 -79 -209 -165 -453 -85
-245 -158 -447 -161 -450 -9 -9 -234 72 -234 84 0 7 69 210 154 451 187 532
187 523 2 351 -66 -62 -207 -195 -313 -297 -107 -102 -232 -220 -278 -264
l-85 -79 -126 44 c-70 24 -128 49 -130 54 -3 6 -38 293 -78 638 -41 346 -76
631 -79 634 -4 3 -326 -107 -717 -246 -391 -138 -716 -251 -722 -251 -20 0
-269 153 -261 160 4 4 260 99 568 210 308 111 566 206 574 210 10 5 -114 84
-387 246 -221 132 -401 242 -402 246 0 10 273 117 291 114 8 -2 267 -152 576
-333z m8637 -408 c145 -237 268 -430 272 -430 18 0 111 286 183 560 10 38 18
44 137 113 69 41 127 72 129 70 2 -2 -14 -71 -36 -153 -36 -138 -106 -467
-126 -593 l-8 -52 -285 -174 -285 -173 -85 23 c-320 90 -435 121 -583 159
l-167 42 143 85 144 85 74 -18 c250 -60 520 -120 529 -117 6 2 -109 198 -255
436 -146 239 -265 438 -265 443 0 10 201 130 213 126 4 -1 126 -196 271 -432z
m-1040 -117 c18 -61 226 -774 312 -1069 4 -13 -15 -22 -93 -43 -54 -14 -131
-33 -171 -41 l-73 -15 -92 46 c-248 125 -499 264 -1082 602 -335 193 -320 184
-304 192 8 4 75 24 150 45 l137 38 595 -316 c328 -175 598 -317 601 -317 13 0
2 42 -119 455 -69 235 -125 431 -125 435 0 6 200 67 227 69 6 1 23 -36 37 -81z
m-1661 -430 c3 -18 9 -74 13 -124 l6 -91 -77 -6 c-42 -3 -78 -7 -80 -9 -1 -2
17 -219 41 -483 24 -263 42 -480 40 -482 -4 -4 -247 -25 -250 -21 -2 1 -20
192 -40 423 -50 567 -45 527 -69 523 -22 -3 -128 -243 -328 -745 l-101 -251
-96 -8 c-54 -4 -116 -8 -140 -8 l-43 -1 -344 570 c-190 314 -345 573 -345 576
0 4 46 9 103 13 56 4 116 9 132 12 30 5 30 5 294 -426 258 -423 265 -432 278
-406 15 29 214 512 312 757 l62 156 127 13 c70 7 199 20 287 30 226 25 212 26
218 -12z m707 -599 c256 -18 466 -33 468 -34 5 -4 -16 -226 -21 -231 -3 -3
-220 9 -483 25 -264 17 -490 31 -503 31 -24 0 -24 0 -17 81 4 44 9 101 13 125
l6 45 36 -5 c20 -3 245 -20 501 -37z"/>
<path d="M2637 5660 c-202 -31 -369 -59 -372 -62 -5 -4 556 -892 580 -916 10
-11 51 39 229 282 119 163 216 301 216 306 0 10 -256 418 -274 436 -8 8 -110
-4 -379 -46z"/>
<path d="M4438 3427 c-186 -89 -337 -164 -337 -167 1 -9 837 -715 845 -713 9
2 246 694 240 700 -23 23 -402 343 -406 342 -3 -1 -157 -74 -342 -162z"/>
</g>
</svg>
